<?xml version="1.0" encoding="utf-8"?>
<!-- Generator: Adobe Illustrator 23.0.1, SVG Export Plug-In . SVG Version: 6.00 Build 0)  -->
<svg version="1.1" id="Camada_1" xmlns="http://www.w3.org/2000/svg" xmlns:xlink="http://www.w3.org/1999/xlink" x="0px" y="0px"
	 viewBox="0 0 52.05 51.22" style="enable-background:new 0 0 52.05 51.22;" xml:space="preserve">
<style type="text/css">
	.st0{fill:#FFFFFF;}
</style>
<g>
	<path class="st0" d="M26.01,0.67c-13.81,0-25,11.19-25,25c0,13.81,11.19,25,25,25c13.81,0,25-11.19,25-25
		C51.01,11.86,39.82,0.67,26.01,0.67z M26.01,49.64c-13.24,0-23.97-10.73-23.97-23.97C2.04,12.43,12.77,1.7,26.01,1.7
		c13.24,0,23.97,10.73,23.97,23.97C49.98,38.91,39.25,49.64,26.01,49.64z"/>
	<g>
		<path class="st0" d="M11.45,31.6h-0.51V11.4h0.52l0.01,0.02l8.21,12.27l8.25-12.29l0.46-0.01h6.35c4.13,0,6.29,3.55,6.29,7.05
			c0,1.7-0.51,3.26-1.42,4.41c-1.04,1.3-2.54,1.98-4.33,1.98h-2.56l8.1,6.76h-0.79L40,31.58l-8.11-6.77v-0.5h3.38
			c1.64,0,3-0.63,3.95-1.81c0.84-1.05,1.3-2.49,1.3-4.05c0-3.24-1.98-6.52-5.77-6.52l-6.6,0l-0.13,0.19l-8.12,12.2h-0.42l-0.01-0.02
			l-7.9-11.63L11.45,31.6z"/>
	</g>
	<path class="st0" d="M14.46,32.79v5.4h-0.23v-1.03c-0.14,0.33-0.35,0.59-0.64,0.78c-0.29,0.19-0.62,0.28-0.98,0.28
		c-0.34,0-0.65-0.08-0.93-0.24c-0.28-0.16-0.5-0.39-0.66-0.68c-0.16-0.29-0.24-0.62-0.24-0.99c0-0.37,0.08-0.7,0.24-0.99
		c0.16-0.29,0.38-0.52,0.66-0.68c0.28-0.16,0.59-0.24,0.93-0.24c0.36,0,0.69,0.09,0.97,0.28c0.29,0.18,0.5,0.44,0.64,0.76v-2.64
		H14.46z M13.43,37.79c0.24-0.14,0.44-0.34,0.58-0.6c0.14-0.26,0.21-0.55,0.21-0.88c0-0.33-0.07-0.62-0.21-0.88
		c-0.14-0.25-0.33-0.45-0.58-0.6c-0.24-0.14-0.52-0.21-0.82-0.21c-0.3,0-0.58,0.07-0.82,0.21c-0.24,0.14-0.44,0.34-0.58,0.6
		C11.07,35.68,11,35.97,11,36.3c0,0.33,0.07,0.62,0.21,0.88c0.14,0.26,0.33,0.46,0.58,0.6C12.03,37.93,12.3,38,12.61,38
		C12.91,38,13.19,37.93,13.43,37.79"/>
	<path class="st0" d="M19.17,36.34h-3.3c0,0.32,0.08,0.61,0.22,0.86c0.14,0.25,0.34,0.45,0.6,0.59c0.25,0.14,0.54,0.21,0.85,0.21
		c0.26,0,0.49-0.05,0.71-0.14c0.22-0.09,0.4-0.23,0.54-0.42l0.15,0.16c-0.17,0.2-0.37,0.35-0.62,0.46c-0.24,0.11-0.5,0.16-0.78,0.16
		c-0.37,0-0.69-0.08-0.98-0.24c-0.29-0.16-0.51-0.39-0.68-0.68c-0.16-0.29-0.25-0.62-0.25-0.99c0-0.37,0.08-0.7,0.23-0.99
		c0.15-0.29,0.36-0.52,0.63-0.68c0.27-0.16,0.57-0.24,0.91-0.24c0.33,0,0.63,0.08,0.9,0.24c0.27,0.16,0.48,0.38,0.63,0.67
		c0.15,0.29,0.23,0.61,0.23,0.98V36.34z M16.65,34.8c-0.23,0.13-0.41,0.31-0.54,0.55c-0.14,0.24-0.21,0.5-0.22,0.79h3.07
		c-0.02-0.29-0.1-0.55-0.24-0.79c-0.14-0.24-0.32-0.42-0.54-0.55c-0.22-0.13-0.48-0.2-0.76-0.2C17.13,34.61,16.87,34.67,16.65,34.8"
		/>
	<path class="st0" d="M20.4,38.08c-0.27-0.09-0.48-0.21-0.63-0.36l0.12-0.19c0.15,0.14,0.35,0.25,0.6,0.34
		c0.24,0.09,0.5,0.14,0.78,0.14c0.41,0,0.71-0.07,0.9-0.21c0.19-0.14,0.29-0.33,0.29-0.58c0-0.17-0.05-0.31-0.16-0.42
		c-0.1-0.1-0.23-0.18-0.39-0.23c-0.15-0.05-0.36-0.1-0.62-0.15c-0.3-0.06-0.55-0.12-0.73-0.18c-0.18-0.06-0.33-0.16-0.46-0.3
		c-0.13-0.14-0.19-0.33-0.19-0.57c0-0.29,0.12-0.53,0.35-0.72c0.23-0.19,0.58-0.29,1.03-0.29c0.23,0,0.46,0.04,0.7,0.11
		c0.23,0.07,0.42,0.16,0.57,0.28l-0.12,0.19c-0.15-0.12-0.33-0.21-0.53-0.27c-0.2-0.06-0.41-0.09-0.62-0.09
		c-0.37,0-0.65,0.07-0.84,0.21c-0.19,0.14-0.28,0.33-0.28,0.56c0,0.18,0.05,0.33,0.16,0.44c0.11,0.11,0.24,0.19,0.39,0.24
		c0.16,0.05,0.37,0.1,0.64,0.16c0.29,0.05,0.52,0.11,0.7,0.17c0.18,0.06,0.33,0.16,0.45,0.29c0.12,0.13,0.18,0.31,0.18,0.55
		c0,0.31-0.12,0.55-0.37,0.73c-0.25,0.18-0.6,0.27-1.07,0.27C20.95,38.22,20.66,38.17,20.4,38.08"/>
	<path class="st0" d="M23.7,33.36c-0.05-0.05-0.07-0.1-0.07-0.16c0-0.07,0.02-0.12,0.07-0.17c0.05-0.05,0.1-0.07,0.17-0.07
		c0.06,0,0.12,0.02,0.17,0.07c0.05,0.05,0.07,0.1,0.07,0.16c0,0.06-0.02,0.12-0.07,0.17c-0.05,0.05-0.1,0.07-0.17,0.07
		C23.81,33.43,23.75,33.4,23.7,33.36 M23.76,34.42h0.24v3.78h-0.24V34.42z"/>
	<path class="st0" d="M28.92,34.42v3.42c0,0.61-0.15,1.06-0.44,1.36c-0.29,0.29-0.74,0.44-1.33,0.44c-0.35,0-0.67-0.05-0.97-0.16
		c-0.3-0.11-0.54-0.26-0.72-0.45l0.14-0.18c0.19,0.18,0.42,0.33,0.68,0.43c0.26,0.1,0.55,0.15,0.86,0.15c0.53,0,0.92-0.13,1.17-0.38
		c0.25-0.25,0.38-0.64,0.38-1.18v-0.8c-0.14,0.31-0.36,0.56-0.65,0.74c-0.29,0.18-0.62,0.27-0.99,0.27c-0.35,0-0.67-0.08-0.95-0.24
		c-0.28-0.16-0.51-0.38-0.67-0.66c-0.16-0.28-0.24-0.6-0.24-0.95c0-0.35,0.08-0.67,0.24-0.95c0.16-0.28,0.38-0.5,0.67-0.65
		c0.28-0.16,0.6-0.23,0.95-0.23c0.37,0,0.7,0.09,1,0.27c0.29,0.18,0.51,0.43,0.65,0.74v-0.98H28.92z M27.88,37.64
		c0.25-0.14,0.44-0.33,0.59-0.58c0.14-0.25,0.21-0.53,0.21-0.84c0-0.31-0.07-0.59-0.21-0.83c-0.14-0.25-0.34-0.44-0.59-0.57
		c-0.25-0.14-0.53-0.2-0.84-0.2c-0.31,0-0.59,0.07-0.84,0.2c-0.25,0.14-0.44,0.33-0.58,0.57c-0.14,0.25-0.21,0.52-0.21,0.83
		c0,0.32,0.07,0.6,0.21,0.84c0.14,0.25,0.33,0.44,0.58,0.58c0.25,0.14,0.53,0.21,0.84,0.21C27.36,37.85,27.63,37.78,27.88,37.64"/>
	<path class="st0" d="M33.41,34.8c0.27,0.27,0.41,0.67,0.41,1.18v2.22h-0.24v-2.21c0-0.45-0.11-0.79-0.34-1.02
		c-0.22-0.24-0.54-0.35-0.96-0.35c-0.47,0-0.84,0.14-1.11,0.42c-0.27,0.28-0.41,0.65-0.41,1.13v2.04h-0.24v-3.78h0.23v0.92
		c0.12-0.3,0.32-0.53,0.58-0.7c0.27-0.17,0.59-0.25,0.96-0.25C32.77,34.39,33.14,34.53,33.41,34.8"/>
	<path class="st0" d="M38.49,36.34h-3.3c0,0.32,0.08,0.61,0.22,0.86c0.15,0.25,0.34,0.45,0.6,0.59c0.25,0.14,0.54,0.21,0.85,0.21
		c0.26,0,0.49-0.05,0.71-0.14c0.22-0.09,0.4-0.23,0.54-0.42l0.15,0.16c-0.17,0.2-0.37,0.35-0.62,0.46c-0.24,0.11-0.5,0.16-0.78,0.16
		c-0.37,0-0.69-0.08-0.98-0.24c-0.29-0.16-0.51-0.39-0.68-0.68c-0.16-0.29-0.25-0.62-0.25-0.99c0-0.37,0.08-0.7,0.23-0.99
		c0.15-0.29,0.36-0.52,0.63-0.68c0.27-0.16,0.57-0.24,0.91-0.24c0.33,0,0.63,0.08,0.9,0.24c0.27,0.16,0.48,0.38,0.63,0.67
		c0.15,0.29,0.23,0.61,0.23,0.98V36.34z M35.97,34.8c-0.23,0.13-0.41,0.31-0.54,0.55c-0.14,0.24-0.21,0.5-0.22,0.79h3.07
		c-0.02-0.29-0.1-0.55-0.24-0.79c-0.14-0.24-0.32-0.42-0.54-0.55c-0.22-0.13-0.48-0.2-0.76-0.2C36.45,34.61,36.2,34.67,35.97,34.8"
		/>
	<path class="st0" d="M40.44,34.63c0.25-0.16,0.56-0.24,0.92-0.24v0.24H41.3c-0.43,0-0.78,0.14-1.02,0.42
		c-0.25,0.28-0.37,0.66-0.37,1.14v2.01h-0.24v-3.78h0.23v0.91C40.01,35.03,40.19,34.79,40.44,34.63"/>
</g>
</svg>
