<?xml version="1.0" encoding="utf-8"?>
<!-- Generator: Adobe Illustrator 23.0.1, SVG Export Plug-In . SVG Version: 6.00 Build 0)  -->
<svg version="1.1" id="Camada_1" xmlns="http://www.w3.org/2000/svg" xmlns:xlink="http://www.w3.org/1999/xlink" x="0px" y="0px"
	 viewBox="0 0 354.57 358.6" style="enable-background:new 0 0 354.57 358.6;" xml:space="preserve">
<style type="text/css">
	.st0{fill:#FFFFFF;}
</style>
<g>
	<path class="st0" d="M177.28,2.28c-96.65,0-175,78.35-175,175c0,96.65,78.35,175,175,175c96.65,0,175-78.35,175-175
		C352.28,80.63,273.93,2.28,177.28,2.28z M177.28,345.08c-92.67,0-167.8-75.12-167.8-167.8c0-92.67,75.12-167.8,167.8-167.8
		c92.67,0,167.8,75.12,167.8,167.8C345.08,269.95,269.95,345.08,177.28,345.08z"/>
	<g>
		<path class="st0" d="M75.32,218.83h-3.6V77.43h3.65l0.09,0.14l57.47,85.9l57.76-86.03l3.2-0.08h44.47
			c28.89,0,44.01,24.84,44.01,49.38c0,11.88-3.54,22.84-9.96,30.87c-7.26,9.07-17.75,13.86-30.34,13.86h-17.94l56.68,47.29h-5.54
			l-0.09-0.07L218.4,171.3v-3.47h23.67c11.47,0,21.02-4.38,27.62-12.65c5.86-7.35,9.08-17.41,9.08-28.33
			c0-22.69-13.88-45.67-40.41-45.67l-46.17-0.02l-0.88,1.36l-56.82,85.42h-2.92l-0.09-0.13L76.16,86.38L75.32,218.83z M72.33,218.21
			h2.37L75.56,84.4l56.35,82.93h2.26l57.7-86.78l46.5,0.02c26.93,0,41.02,23.28,41.02,46.28c0,11.06-3.27,21.26-9.22,28.71
			c-6.72,8.43-16.43,12.88-28.1,12.88h-23.06v2.57l56.48,47.13h3.62l-56.68-47.29h19.63c12.4,0,22.72-4.71,29.86-13.63
			c6.34-7.92,9.82-18.74,9.82-30.48c0-24.24-14.9-48.77-43.39-48.77H193.9l-2.88,0.07l-58.09,86.53l-0.25-0.38L75.05,78.04h-2.71
			V218.21z"/>
	</g>
	<path class="st0" d="M96.4,227.17V265h-1.62v-7.24c-0.98,2.31-2.48,4.12-4.49,5.43c-2.01,1.31-4.31,1.96-6.87,1.96
		c-2.4,0-4.58-0.57-6.54-1.71c-1.96-1.14-3.51-2.73-4.64-4.77c-1.13-2.04-1.7-4.35-1.7-6.93c0-2.58,0.57-4.89,1.7-6.93
		c1.13-2.04,2.68-3.63,4.64-4.77c1.96-1.14,4.14-1.71,6.54-1.71c2.54,0,4.81,0.65,6.82,1.94c2.01,1.29,3.51,3.08,4.49,5.35v-18.46
		H96.4z M89.22,262.12c1.71-1,3.05-2.4,4.03-4.21c0.98-1.8,1.47-3.86,1.47-6.17c0-2.31-0.49-4.36-1.47-6.14
		c-0.98-1.78-2.33-3.18-4.03-4.18c-1.71-1-3.63-1.5-5.76-1.5c-2.13,0-4.05,0.5-5.76,1.5c-1.71,1-3.05,2.4-4.03,4.18
		c-0.98,1.78-1.47,3.83-1.47,6.14c0,2.31,0.49,4.37,1.47,6.17c0.98,1.8,2.33,3.2,4.03,4.21c1.71,1,3.63,1.5,5.76,1.5
		C85.59,263.62,87.51,263.12,89.22,262.12"/>
	<path class="st0" d="M129.37,252h-23.09c0.03,2.24,0.56,4.25,1.57,6.02c1.01,1.77,2.41,3.14,4.19,4.13
		c1.78,0.99,3.76,1.48,5.96,1.48c1.79,0,3.45-0.33,4.97-0.99c1.52-0.66,2.77-1.64,3.75-2.93l1.07,1.12
		c-1.18,1.39-2.62,2.46-4.31,3.21c-1.69,0.75-3.52,1.12-5.48,1.12c-2.57,0-4.86-0.57-6.87-1.71c-2.01-1.14-3.59-2.73-4.74-4.77
		c-1.15-2.04-1.72-4.35-1.72-6.93c0-2.58,0.53-4.89,1.6-6.93c1.07-2.04,2.54-3.63,4.44-4.77c1.89-1.14,4.01-1.71,6.34-1.71
		c2.3,0,4.39,0.56,6.27,1.68c1.88,1.12,3.36,2.68,4.44,4.69c1.08,2,1.62,4.28,1.62,6.83V252z M111.72,241.24
		c-1.59,0.92-2.86,2.2-3.81,3.85c-0.95,1.65-1.47,3.49-1.57,5.53h21.46c-0.14-2.04-0.69-3.88-1.65-5.53
		c-0.96-1.65-2.23-2.93-3.8-3.85c-1.57-0.92-3.34-1.38-5.3-1.38C115.08,239.86,113.31,240.32,111.72,241.24"/>
	<path class="st0" d="M137.97,264.18c-1.88-0.65-3.34-1.5-4.39-2.55l0.81-1.33c1.08,0.95,2.48,1.75,4.19,2.4
		c1.71,0.65,3.53,0.97,5.45,0.97c2.84,0,4.94-0.48,6.29-1.45c1.35-0.97,2.03-2.32,2.03-4.05c0-1.22-0.36-2.19-1.09-2.91
		c-0.73-0.71-1.63-1.24-2.71-1.58c-1.08-0.34-2.54-0.68-4.36-1.02c-2.13-0.41-3.83-0.82-5.1-1.25c-1.27-0.42-2.34-1.11-3.22-2.07
		c-0.88-0.95-1.32-2.28-1.32-3.98c0-2,0.82-3.68,2.46-5.02c1.64-1.34,4.03-2.01,7.18-2.01c1.62,0,3.25,0.25,4.87,0.74
		c1.62,0.49,2.94,1.15,3.96,1.96l-0.86,1.32c-1.05-0.82-2.28-1.44-3.68-1.86c-1.4-0.42-2.85-0.64-4.34-0.64
		c-2.6,0-4.57,0.5-5.89,1.5c-1.32,1-1.98,2.32-1.98,3.95c0,1.29,0.37,2.31,1.12,3.06c0.74,0.75,1.67,1.3,2.76,1.66
		c1.1,0.36,2.6,0.72,4.49,1.1c2.03,0.38,3.67,0.77,4.92,1.2c1.25,0.43,2.31,1.1,3.17,2.01c0.86,0.92,1.29,2.19,1.29,3.82
		c0,2.14-0.86,3.84-2.59,5.1c-1.73,1.26-4.21,1.89-7.46,1.89C141.85,265.15,139.85,264.83,137.97,264.18"/>
	<path class="st0" d="M161.13,231.12c-0.34-0.32-0.51-0.7-0.51-1.15c0-0.48,0.16-0.87,0.48-1.2c0.32-0.32,0.72-0.48,1.19-0.48
		c0.44,0,0.83,0.16,1.17,0.48c0.34,0.32,0.51,0.71,0.51,1.15s-0.17,0.83-0.51,1.17c-0.34,0.34-0.73,0.51-1.17,0.51
		C161.86,231.6,161.47,231.44,161.13,231.12 M161.49,238.54h1.67V265h-1.67V238.54z"/>
	<path class="st0" d="M197.61,238.54v23.91c0,4.28-1.03,7.45-3.09,9.51c-2.06,2.06-5.17,3.08-9.34,3.08c-2.44,0-4.7-0.37-6.8-1.12
		c-2.1-0.75-3.77-1.8-5.02-3.16l0.96-1.27c1.35,1.29,2.95,2.29,4.79,2.98c1.84,0.7,3.85,1.05,6.01,1.05c3.69,0,6.41-0.88,8.17-2.63
		c1.76-1.75,2.64-4.5,2.64-8.23v-5.61c-0.98,2.18-2.49,3.89-4.52,5.15c-2.03,1.26-4.35,1.89-6.95,1.89c-2.47,0-4.69-0.55-6.67-1.66
		c-1.98-1.1-3.54-2.63-4.67-4.59c-1.13-1.95-1.7-4.17-1.7-6.65c0-2.48,0.57-4.7,1.7-6.65c1.13-1.95,2.69-3.47,4.67-4.56
		c1.98-1.09,4.2-1.63,6.67-1.63c2.6,0,4.93,0.63,6.98,1.89c2.05,1.26,3.56,2.99,4.54,5.2v-6.88H197.61z M190.38,261.1
		c1.74-0.97,3.11-2.32,4.11-4.05c1-1.73,1.5-3.69,1.5-5.86c0-2.17-0.5-4.12-1.5-5.84c-1-1.72-2.37-3.05-4.11-4
		c-1.74-0.95-3.7-1.43-5.86-1.43c-2.16,0-4.12,0.48-5.86,1.43c-1.74,0.95-3.1,2.29-4.08,4c-0.98,1.72-1.47,3.66-1.47,5.84
		c0,2.21,0.49,4.17,1.47,5.89c0.98,1.72,2.34,3.06,4.08,4.03c1.74,0.97,3.7,1.45,5.86,1.45
		C186.68,262.55,188.64,262.06,190.38,261.1"/>
	<path class="st0" d="M229.06,241.21c1.89,1.92,2.84,4.67,2.84,8.23V265h-1.67v-15.45c0-3.13-0.79-5.51-2.36-7.16
		c-1.57-1.65-3.81-2.47-6.72-2.47c-3.28,0-5.87,0.98-7.76,2.93c-1.89,1.95-2.84,4.58-2.84,7.88V265h-1.67v-26.46h1.62v6.47
		c0.85-2.07,2.21-3.7,4.08-4.89c1.88-1.19,4.12-1.78,6.72-1.78C224.58,238.33,227.17,239.29,229.06,241.21"/>
	<path class="st0" d="M264.63,252h-23.08c0.03,2.24,0.56,4.25,1.57,6.02c1.02,1.77,2.41,3.14,4.19,4.13
		c1.78,0.99,3.76,1.48,5.96,1.48c1.79,0,3.45-0.33,4.97-0.99c1.52-0.66,2.77-1.64,3.75-2.93l1.07,1.12
		c-1.18,1.39-2.62,2.46-4.31,3.21c-1.69,0.75-3.52,1.12-5.48,1.12c-2.57,0-4.86-0.57-6.87-1.71c-2.01-1.14-3.59-2.73-4.74-4.77
		c-1.15-2.04-1.72-4.35-1.72-6.93c0-2.58,0.53-4.89,1.6-6.93c1.07-2.04,2.54-3.63,4.44-4.77c1.89-1.14,4.01-1.71,6.34-1.71
		c2.3,0,4.39,0.56,6.27,1.68c1.88,1.12,3.36,2.68,4.44,4.69c1.08,2,1.62,4.28,1.62,6.83V252z M246.97,241.24
		c-1.59,0.92-2.86,2.2-3.81,3.85c-0.95,1.65-1.47,3.49-1.57,5.53h21.46c-0.14-2.04-0.69-3.88-1.65-5.53
		c-0.96-1.65-2.23-2.93-3.81-3.85c-1.57-0.92-3.34-1.38-5.3-1.38C250.34,239.86,248.56,240.32,246.97,241.24"/>
	<path class="st0" d="M278.3,240.04c1.74-1.14,3.9-1.71,6.47-1.71v1.68h-0.46c-3.04,0-5.43,0.97-7.15,2.91
		c-1.72,1.94-2.59,4.61-2.59,8V265h-1.67v-26.46h1.62v6.37C275.3,242.8,276.56,241.18,278.3,240.04"/>
</g>
</svg>
